<svg width="185" height="86" viewBox="0 0 185 86" fill="none" xmlns="http://www.w3.org/2000/svg">
<path d="M19.572 79.2972L7.64278 79.2888L7.24363 80.3021L6.1632 80.0218L7.20521 76.0063L8.28564 76.2867L8.14795 77.6221L15.3817 77.774L17.0697 77.8125L17.0915 77.7637L15.6287 76.8574L8.17657 72.2631L8.5585 70.7913L17.3109 70.3749L19.1212 70.3271L19.1344 70.276L17.5648 69.3965L11.157 66.0266L10.6015 67.3625L9.52103 67.0822L10.5454 63.1348L11.6258 63.4152L11.4995 64.4266L21.9584 70.1008L21.5456 71.6917L12.2726 72.1547L10.9337 72.1705L10.9205 72.2215L12.085 72.8778L19.9605 77.7999L19.572 79.2972Z" fill="#0E1412"/>
<path d="M27.3517 58.3279C26.8688 59.1924 26.2918 59.7326 25.6209 59.9484C24.9449 60.1614 24.2232 60.0536 23.4559 59.625C22.929 59.3307 22.5512 58.9317 22.3224 58.4281C22.0914 57.9165 22.0214 57.327 22.1123 56.6596C22.1981 55.9894 22.4538 55.2732 22.8796 54.511L23.7068 53.0301L22.8935 52.5758C22.3922 52.2957 21.9177 52.232 21.47 52.3847C21.0252 52.5322 20.6484 52.8822 20.3398 53.4346C20.1455 53.7825 20.0204 54.1086 19.9645 54.4129C19.9035 54.7144 19.8886 55.0114 19.9198 55.304L20.9884 56.1124L20.3369 57.2787L18.434 56.2157C18.3408 55.6737 18.356 55.1117 18.4797 54.5298C18.5983 53.9451 18.8262 53.3509 19.1634 52.7472C19.7263 51.7395 20.4082 51.0835 21.2091 50.7792C22.0099 50.4748 22.858 50.5727 23.7532 51.0727L27.7509 53.3058C27.8583 53.3658 27.9632 53.4244 28.0655 53.4816C28.1706 53.5336 28.2772 53.5831 28.3852 53.63L28.9197 52.8714L29.8865 53.4115L28.6735 55.583C28.4227 55.5033 28.2007 55.4262 28.0073 55.3518C27.814 55.2774 27.625 55.1953 27.4402 55.1055C27.6508 55.6057 27.7585 56.1457 27.7634 56.7257C27.7661 57.2976 27.6288 57.8317 27.3517 58.3279ZM26.2099 57.3982C26.4899 56.8969 26.6254 56.3719 26.6165 55.8232C26.6075 55.2746 26.4842 54.8164 26.2466 54.4488L24.7427 53.6087L23.8855 55.1433C23.4968 55.839 23.3716 56.4537 23.5098 56.9873C23.648 57.5208 23.9217 57.9019 24.331 58.1305C24.6942 58.3334 25.0358 58.3766 25.3559 58.2601C25.6709 58.1407 25.9556 57.8534 26.2099 57.3982Z" fill="#0E1412"/>
<path d="M35.6191 46.0051C35.1735 46.549 34.6603 46.8519 34.0794 46.9139C33.4976 46.9675 32.8555 46.7066 32.1529 46.1311L27.6859 42.4719L26.7335 43.6345L25.7408 42.8214L26.6932 41.6587L24.9186 40.2051L26.0158 38.8657L27.7904 40.3193L29.0993 38.7215L30.0919 39.5347L28.7831 41.1325L33.2501 44.7917C33.6036 45.0813 33.9218 45.2245 34.2046 45.2214C34.4875 45.2182 34.7254 45.0988 34.9185 44.8631C35.0484 44.7045 35.1797 44.5166 35.3121 44.2994C35.44 44.0785 35.5372 43.9044 35.6037 43.777L36.6311 44.3119C36.5304 44.5551 36.3857 44.838 36.1972 45.1607C36.0123 45.4789 35.8196 45.7603 35.6191 46.0051Z" fill="#0E1412"/>
<path d="M44.422 37.1214C43.7674 37.6813 43.068 38.0174 42.3237 38.1297C41.5755 38.2376 40.8355 38.1342 40.1037 37.8195C39.3719 37.5048 38.7013 36.9912 38.0919 36.2788L37.852 35.9983C37.2655 35.3125 36.869 34.5876 36.6626 33.8235C36.4562 33.0593 36.4605 32.3116 36.6754 31.5804C36.8904 30.8491 37.334 30.1959 38.0064 29.6208C38.5897 29.1219 39.1814 28.7815 39.7816 28.5997C40.3861 28.4141 40.9804 28.3607 41.5644 28.4395L43.0832 30.1475L42.0546 31.0273L40.7478 29.9592C40.4631 29.9328 40.1672 29.97 39.8601 30.0708C39.553 30.1715 39.2459 30.3533 38.9386 30.6161C38.5468 30.9512 38.3007 31.3622 38.2005 31.8489C38.1046 32.3318 38.14 32.8374 38.3066 33.3657C38.4732 33.894 38.7603 34.3964 39.1678 34.8728L39.4077 35.1533C39.8571 35.6788 40.3232 36.0704 40.806 36.3283C41.2931 36.5824 41.7706 36.6944 42.2384 36.6644C42.7069 36.6261 43.1392 36.4375 43.5355 36.0985C43.9808 35.7177 44.2456 35.2791 44.33 34.7829C44.4144 34.2866 44.3072 33.7962 44.0084 33.3116L45.1906 32.3004L45.2382 32.329C45.5702 32.7622 45.7791 33.2543 45.8649 33.8054C45.9508 34.3565 45.8819 34.9205 45.6582 35.4973C45.4352 36.0659 45.0231 36.6073 44.422 37.1214Z" fill="#0E1412"/>
<path d="M52.2254 30.8143L51.6965 29.8414L52.8376 28.9409L47.5862 19.2809L46.21 19.749L45.6769 18.7683L48.4568 17.2571L51.0678 22.0601C51.1378 21.5018 51.3211 20.9987 51.6177 20.5506C51.9144 20.1026 52.3175 19.7401 52.8272 19.463C53.7229 18.9761 54.5634 18.866 55.3486 19.1327C56.1339 19.3994 56.8287 20.0888 57.4332 21.2007L59.6328 25.2469L61.009 24.7789L61.5379 25.7519L57.4994 27.9473L56.9705 26.9743L58.1116 26.0739L55.9036 22.0122C55.5286 21.3224 55.1023 20.8939 54.6246 20.7268C54.1521 20.5568 53.6224 20.6313 53.0355 20.9504C52.6185 21.1771 52.2921 21.4845 52.0564 21.8728C51.823 22.2531 51.6879 22.6733 51.6513 23.1334L54.3588 28.114L55.735 27.646L56.2639 28.6189L52.2254 30.8143Z" fill="#0E1412"/>
<path d="M81.8306 20.1149C81.013 20.2336 80.2568 20.1835 79.5619 19.9646C78.867 19.7458 78.2492 19.3854 77.7087 18.8837C77.1731 18.3753 76.7267 17.7473 76.3695 16.9999C76.0181 16.2516 75.7739 15.4048 75.6367 14.4596L75.6102 14.277C75.4738 13.3376 75.4677 12.4593 75.5918 11.6419C75.7209 10.818 75.9699 10.0861 76.3389 9.44643C76.7137 8.80588 77.2031 8.28191 77.8071 7.87452C78.4111 7.46713 79.1219 7.2041 79.9395 7.08543C80.8034 6.96003 81.5858 7.00634 82.2865 7.22436C82.9872 7.44238 83.5995 7.80643 84.1235 8.31653C84.6534 8.82579 85.0886 9.45831 85.4292 10.2141C85.7689 10.9641 86.007 11.8088 86.1433 12.7481L86.1699 12.9308C86.307 13.876 86.3194 14.7564 86.2069 15.572C86.0943 16.3877 85.8565 17.1149 85.4933 17.7538C85.1351 18.386 84.6511 18.9062 84.0413 19.3145C83.4315 19.7227 82.6946 19.9895 81.8306 20.1149ZM81.6236 18.6885C82.4644 18.5664 83.1125 18.2592 83.568 17.7668C84.0293 17.2735 84.3274 16.6352 84.4624 15.8519C84.5965 15.0627 84.5916 14.1723 84.4477 13.1808L84.4186 12.9807C84.2756 11.995 84.0255 11.1491 83.6684 10.443C83.3163 9.73035 82.849 9.20314 82.2665 8.86138C81.6832 8.51383 80.977 8.40023 80.1478 8.52059C79.3881 8.63084 78.7752 8.93591 78.309 9.4358C77.8427 9.93569 77.5276 10.5794 77.3637 11.367C77.1989 12.1488 77.1876 13.0297 77.3298 14.0096L77.3589 14.2097C77.5019 15.1954 77.7645 16.0454 78.1464 16.7597C78.5275 17.4682 79.0126 17.9958 79.6017 18.3425C80.19 18.6834 80.864 18.7987 81.6236 18.6885Z" fill="#0E1412"/>
<path d="M97.1761 19.4828C96.1475 19.4086 95.3678 19.0204 94.8369 18.3182C94.306 17.6161 94.091 16.5666 94.1918 15.1699L94.4975 10.9358L93.4282 10.6118L93.5086 9.49851L94.5956 9.57698L96.3225 9.70166L95.9175 15.3121C95.8445 16.3231 95.9433 17.0293 96.214 17.4307C96.4846 17.8321 96.9355 18.0556 97.5666 18.1011C98.1803 18.1454 98.6947 18.0592 99.1098 17.8424C99.5312 17.6203 99.8606 17.2886 100.098 16.8475L100.494 11.3686L99.2402 11.0314L99.3206 9.9181L100.592 10.0099L102.319 10.1345L101.731 18.2696L102.801 18.5936L102.721 19.6981L100.082 19.5076L100.07 18.0968C99.7348 18.5837 99.3208 18.9474 98.8276 19.1879C98.3402 19.4288 97.7897 19.5271 97.1761 19.4828Z" fill="#0E1412"/>
<path d="M108.466 20.8121L108.753 19.7425L110.201 19.8759L111.961 13.314L110.641 12.7051L110.93 11.627L113.808 12.3989L113.638 13.6091L113.612 13.775C113.998 13.3751 114.416 13.093 114.867 12.9287C115.323 12.766 115.797 12.7506 116.29 12.8827C116.465 12.9297 116.639 12.9945 116.811 13.0771C116.99 13.1555 117.115 13.2194 117.187 13.269L116.55 14.7633L115.405 14.3834C114.971 14.2367 114.573 14.2391 114.211 14.3907C113.85 14.5366 113.536 14.78 113.269 15.1208L111.873 20.3245L113.193 20.9334L112.906 22.003L108.466 20.8121Z" fill="#0E1412"/>
<path d="M133.612 31.5808L136.621 19.6429L135.86 18.9491L136.493 18.0296L139.824 20.3216L139.191 21.2411L138.123 20.7304L135.87 29.0592L135.543 30.0613L135.586 30.0912L136.42 29.4379L143.486 24.4104L142.514 23.5281L143.147 22.6086L146.47 24.8957L145.837 25.8152L144.911 25.3481L134.835 32.4229L133.612 31.5808Z" fill="#0E1412"/>
<path d="M143.967 39.8682L144.761 39.0961L145.937 39.9515L150.807 35.2148L149.985 34.0162L150.785 33.238L152.991 35.5062L147.144 41.1928L147.966 42.3913L147.172 43.1634L143.967 39.8682ZM153.405 32.5659L154.734 31.2729L156.002 32.5771L154.673 33.8701L153.405 32.5659Z" fill="#0E1412"/>
<path d="M153.136 50.9334C152.702 50.2927 152.488 49.6351 152.491 48.9606C152.503 48.2877 152.711 47.638 153.115 47.0112C153.519 46.3845 154.099 45.8152 154.856 45.3031L155.009 45.1997C155.854 44.6286 156.676 44.2494 157.476 44.0621C158.276 43.8749 159.006 43.8936 159.668 44.1184C160.334 44.3399 160.885 44.7734 161.322 45.419C161.637 45.885 161.827 46.3542 161.892 46.8267C161.965 47.3007 161.924 47.7739 161.769 48.2462L164.98 46.075L164.382 44.7504L165.306 44.1251L166.109 45.3119L167.079 46.7462L156.842 53.6684L157.441 54.993L156.523 55.6134L154.879 53.1816L155.739 52.43C155.206 52.4157 154.721 52.284 154.284 52.035C153.85 51.7908 153.467 51.4236 153.136 50.9334ZM154.547 50.5097C154.836 50.9368 155.176 51.2303 155.567 51.3903C155.958 51.5502 156.394 51.605 156.877 51.5547L160.532 49.0832C160.737 48.6755 160.837 48.258 160.831 47.8307C160.825 47.4033 160.682 46.9833 160.403 46.5708C160.094 46.1145 159.709 45.827 159.247 45.7081C158.789 45.586 158.281 45.608 157.721 45.7742C157.166 45.9372 156.586 46.2238 155.979 46.634L155.826 46.7374C155.035 47.2724 154.509 47.865 154.248 48.5151C153.988 49.1653 154.087 49.8301 154.547 50.5097Z" fill="#0E1412"/>
<path d="M160.848 65.0456C160.513 64.2332 160.405 63.4504 160.525 62.6972C160.651 61.9417 160.976 61.2624 161.5 60.6593C162.027 60.0616 162.724 59.5839 163.59 59.2262L163.948 59.0786C164.782 58.7343 165.597 58.5975 166.393 58.6682C167.197 58.7421 167.906 58.9851 168.52 59.3973C169.141 59.8126 169.592 60.3588 169.871 61.0358C170.197 61.8266 170.308 62.5544 170.202 63.2193C170.098 63.8897 169.807 64.4821 169.329 64.9966C168.855 65.5088 168.221 65.9293 167.425 66.2579L166.425 66.6704L164.071 60.9673L164.02 60.9597C163.462 61.2031 163.001 61.5073 162.638 61.8726C162.283 62.241 162.054 62.6527 161.95 63.1075C161.846 63.5624 161.896 64.0363 162.099 64.5292C162.323 65.0708 162.594 65.5134 162.914 65.857C163.241 66.2038 163.601 66.4702 163.995 66.6563L163.213 67.7111C162.78 67.5222 162.351 67.2114 161.925 66.7786C161.507 66.349 161.148 65.7714 160.848 65.0456ZM165.342 60.4996L167.016 64.5535L167.227 64.4663C167.649 64.292 167.995 64.0607 168.262 63.7727C168.538 63.4879 168.709 63.1574 168.775 62.7812C168.85 62.4083 168.795 61.9998 168.612 61.5556C168.464 61.1982 168.225 60.9168 167.893 60.7115C167.566 60.504 167.185 60.3793 166.749 60.3373C166.313 60.2953 165.856 60.3384 165.376 60.4666L165.342 60.4996Z" fill="#0E1412"/>
<path d="M165.038 78.8987C164.867 78.0365 164.922 77.2523 165.2 76.5463C165.486 75.8449 165.952 75.2543 166.597 74.7744C167.249 74.2933 168.035 73.962 168.954 73.7804L169.144 73.743C170.064 73.5614 170.914 73.5698 171.693 73.7682C172.479 73.9655 173.137 74.3343 173.668 74.8745C174.2 75.4205 174.549 76.1189 174.717 76.9696C174.888 77.8319 174.83 78.6137 174.544 79.3151C174.26 80.0223 173.795 80.6158 173.149 81.0957C172.503 81.5756 171.718 81.9069 170.792 82.0897L170.602 82.1271C169.677 82.3098 168.821 82.3026 168.036 82.1053C167.256 81.9069 166.604 81.537 166.079 80.9956C165.554 80.4542 165.207 79.7553 165.038 78.8987ZM166.366 78.6366C166.472 79.1769 166.708 79.5992 167.073 79.9035C167.444 80.2124 167.904 80.4083 168.452 80.4912C169.007 80.5788 169.612 80.5578 170.267 80.4285L170.457 80.391C171.112 80.2616 171.677 80.0516 172.151 79.7609C172.632 79.4748 172.983 79.1188 173.203 78.693C173.43 78.2661 173.489 77.7796 173.381 77.2335C173.274 76.6932 173.035 76.2686 172.664 75.9597C172.298 75.6497 171.838 75.4537 171.284 75.3719C170.736 75.289 170.135 75.3122 169.479 75.4416L169.29 75.4791C168.634 75.6085 168.066 75.8162 167.585 76.1023C167.11 76.3873 166.759 76.7432 166.533 77.1701C166.313 77.6016 166.258 78.0905 166.366 78.6366Z" fill="#0E1412"/>
</svg>
